<?xml version="1.0" encoding="UTF-8"?>
<!DOCTYPE svg PUBLIC "-//W3C//DTD SVG 1.1//EN" "http://www.w3.org/Graphics/SVG/1.1/DTD/svg11.dtd">
<!-- Creator: CorelDRAW -->
<svg xmlns="http://www.w3.org/2000/svg" xml:space="preserve" width="3355px" height="1672px" version="1.1" style="shape-rendering:geometricPrecision; text-rendering:geometricPrecision; image-rendering:optimizeQuality; fill-rule:evenodd; clip-rule:evenodd"
viewBox="0 0 1894.37 944.26"
 xmlns:xlink="http://www.w3.org/1999/xlink"
 xmlns:xodm="http://www.corel.com/coreldraw/odm/2003">
 <defs>
  <style type="text/css">
   <![CDATA[
    .fil2 {fill:#FEFEFE}
    .fil1 {fill:#FEFEFE;fill-rule:nonzero}
    .fil0 {fill:#F79633;fill-rule:nonzero}
   ]]>
  </style>
 </defs>
 <g id="Camada_x0020_1">
  <metadata id="CorelCorpID_0Corel-Layer"/>
  <g id="_2451792031008">
   <polygon class="fil0" points="1894.37,128.5 1765.84,128.5 1765.84,0 1671.97,0 1671.97,128.5 1543.47,128.5 1543.47,222.38 1671.97,222.38 1671.97,350.88 1765.84,350.88 1765.84,222.38 1894.37,222.38 "/>
   <polygon class="fil1" points="1571.6,320.89 1571.6,252.4 1641.39,252.4 1641.39,320.89 "/>
   <polygon class="fil2" points="119.55,250.52 0,250.52 0,777.47 330.64,777.47 330.64,671.19 119.55,671.19 "/>
   <polygon class="fil2" points="380.82,777.47 500.4,777.47 500.4,398.11 380.82,398.11 "/>
   <polygon class="fil2" points="380.82,355.32 500.4,355.32 500.4,250.52 380.82,250.52 "/>
   <path class="fil2" d="M732.12 610.67c-38.35,0 -69.35,-32.46 -69.35,-69.38 0,-38.38 29.51,-67.88 69.35,-67.88 41.36,0 67.93,29.5 67.93,64.93 0,38.38 -29.52,72.33 -67.93,72.33zm464.97 -212.56l-97.41 0 0 -147.59 -119.55 0 0 147.59 -248.01 0 -10.31 0c-137.26,0 -169.76,91.52 -169.76,138.77 0,116.6 152.03,129.89 153.52,129.89l5.9 0 -90.03 107.75 4.42 0c20.67,0 53.13,0 91.51,0 4.44,0 10.34,0 14.75,0 75.3,4.42 95.98,26.56 95.98,51.67 0,25.09 -33.97,47.23 -85.64,47.23 -4.44,0 -7.39,0 -10.34,0 -57.54,-1.48 -88.54,-16.24 -88.54,-44.28l0 -2.95 -109.23 0c0,2.95 0,5.9 0,8.85 0,48.7 41.3,109.22 197.77,109.22l4.44 0c122.53,0 200.78,-38.36 200.78,-126.94 0,-19.19 -5.95,-48.7 -31.02,-73.79 -11.83,-11.82 -42.82,-38.38 -143.21,-41.33 -2.95,0 -5.9,0 -8.85,-1.49 0,0 16.27,-8.85 23.65,-13.28 32.46,-19.19 69.35,-33.95 98.88,-63.48 20.65,-19.19 35.43,-48.71 35.43,-82.66 0,-22.14 -5.9,-39.84 -19.19,-63.47l87.1 0 0 299.65 119.55 0 0 -299.65 53.16 0c36.89,0 61.98,22.14 61.98,78.25l0 221.4 119.53 0 0 -246.51c0,-103.32 -67.88,-132.85 -137.25,-132.85l-0.01 0z"/>
   <polygon class="fil2" points="1541.03,350.88 1541.03,254.93 1421.47,254.93 1421.47,350.88 1352.1,350.88 1352.1,430.59 1421.47,430.59 1421.47,781.89 1541.03,781.89 1541.03,430.59 1608.94,430.59 1608.94,350.88 "/>
  </g>
 </g>
</svg>
